Van Helsing 
színes, magyarul beszélő, amerikai-cseh akciófilm, 132 perc, 2004

rendező: Stephen Sommers
forgatókönyvíró: Stephen Sommers
operatőr: Allen Daviau
jelmeztervező: Gabriella Pescucci
zene: Alan Silvestri
producer: Stephen Sommers, Bob Ducsay
látványtervező: Allan Cameron
vágó: Bob Ducsay, Kelly Matsumoto, Jim May

szereplő(k): 
Hugh Jackman (Abraham Van Helsing)
Kate Beckinsale (Anna Valerious)
Richard Roxburgh (Drakula gróf)
David Wenham (Carl)
Shuler Hensley (Szörny)
Will Kempe (Velkan)
Kevin J. O'Connor (Igor)
Samuel West (Victor Frankenstein)
Elena Anaya (Aleera)

Képernyőmentések: 
http://kepfeltoltes.hu/100705/N_vtelen_5_www.kepfeltoltes.hu_.jpg 
http://kepfeltoltes.hu/100705/731514280N_vtelen_1_www.kepfeltoltes.hu_.jpg 
http://kepfeltoltes.hu/100705/N_vtelen_2_www.kepfeltoltes.hu_.jpg 
http://kepfeltoltes.hu/100705/786998701N_vtelen_1_www.kepfeltoltes.hu_.jpg 
http://kepfeltoltes.hu/100705/N_vtelen_4_www.kepfeltoltes.hu_.jpg


Van Helsing ádáz elszántsággal küzd a Gonosz és az általa létrehozott teremtmények ellen. A szörnyvadász a vatikáni székhelyű titkos szervezet szolgálatában áll. Legújabb megbízatása a sötét legendák földjére, Erdélybe szólítja, hogy leszámoljon a sötétség urával, Drakula gróffal. Feladata égetően sürgős, mert a régi cigány család utolsó sarját, Anna hercegnőt kell segítenie. A lány ősei fogadalmat tettek a gróf elpusztítására, és ha ő is odavész, mindannyian elkárhoznak. Anna és Van Helsing együtt száll harcba Drakula és félelmetes segítői, Frankenstein szörnyetege és a Farkasember ellen...

   Van.Helsing.2004.720p.BRRip.x264.AC3.HUN-ANUBIS.mkv
      
   Format : Matroska
      File size : 5.55 GiB
      Duration : 2h 6mn
      Overall bit rate : 6 300 Kbps
      Encoded date : UTC 2010-06-29 16:14:19
      Writing application : mkvmerge v4.0.0 ('The Stars were mine') built on Jun  6 2010 16:18:42
      Writing library : libebml v1.0.0 + libmatroska v1.0.0
   Video #1
      ID : 1
      Format : AVC
      Format/Info : Advanced Video Codec
      Format profile : High@L4.1
      Format settings, CABAC : Yes
      Format settings, ReFrames : 5 frames
      Muxing mode : Container profile=Unknown@4.1
      Codec ID : V_MPEG4/ISO/AVC
      Duration : 2h 6mn
      Bit rate : 5 727 Kbps
      Nominal bit rate : 5 614 Kbps
      Width : 1 280 pixels
      Height : 688 pixels
      Display aspect ratio : 1.860
      Frame rate : 25.000 fps
      Original frame rate : 23.976 fps
      Resolution : 24 bits
      Colorimetry : 4:2:0
      Scan type : Progressive
      Bits/(Pixel*Frame) : 0.260
      Stream size : 5.05 GiB (91%)
      Title : video
      Writing library : x264 core 80 r1376M 3feaec2
   Audio #2
      ID : 2
      Format : AC-3
      Format/Info : Audio Coding 3
      Codec ID : A_AC3
      Duration : 2h 6mn
      Bit rate mode : Constant
      Bit rate : 448 Kbps
      Channel(s) : 6 channels
      Channel positions : Front: L C R, Surround: L R, LFE
      Sampling rate : 48.0 KHz
      Stream size : 404 MiB (7%)
      Title : AC3 5.1 magyar
      Language : Hungarian

   THX: YellowBeast@beAst - BRRip